/* XPM */
static char *_02ce3644de44a83ef96c2b2b05c6a8eyEdoXFPjfEf6pOZt[] = {
/* columns rows colors chars-per-pixel */
"32 32 172 2 ",
"   c #050306",
".  c #060708",
"X  c #0C0108",
"o  c #0D0D0E",
"O  c #100D0D",
"+  c #081209",
"@  c #2A0110",
"#  c #26021A",
"$  c #2F011D",
"%  c #310113",
"&  c #0E200C",
"*  c #053204",
"=  c #073404",
"-  c #063A04",
";  c #1A3A18",
":  c #20231F",
">  c #282D25",
",  c #4F0115",
"<  c #5E012F",
"1  c #6C012B",
"2  c #6B012E",
"3  c #62013D",
"4  c #7F0130",
"5  c #60183E",
"6  c #782C3F",
"7  c #064904",
"8  c #075305",
"9  c #075405",
"0  c #184D11",
"q  c #15501B",
"w  c #076103",
"e  c #06620D",
"r  c #37621B",
"t  c #3A4F23",
"y  c #365C2E",
"u  c #3C4334",
"i  c #3A5934",
"p  c #297823",
"a  c #40493A",
"s  c #454E3F",
"d  c #6F1E48",
"f  c #7C1151",
"g  c #4E3B40",
"h  c #495442",
"j  c #4B5D44",
"k  c #615353",
"l  c #4B6943",
"z  c #55614D",
"x  c #4A7A44",
"c  c #567D43",
"v  c #5A6851",
"b  c #5C6B53",
"n  c #6E7D45",
"m  c #607057",
"M  c #617058",
"N  c #840023",
"B  c #8D002A",
"V  c #960231",
"C  c #9E0138",
"Z  c #A5002B",
"A  c #B5002F",
"S  c #A00131",
"D  c #B70035",
"F  c #EB0037",
"G  c #E4003A",
"H  c #F6003F",
"J  c #920145",
"K  c #9C0044",
"L  c #91035A",
"P  c #940058",
"I  c #A40442",
"U  c #B7024B",
"Y  c #A60167",
"T  c #BA0174",
"R  c #D0004C",
"E  c #CA0059",
"W  c #EB0045",
"Q  c #FD0041",
"!  c #F7004B",
"~  c #F5004E",
"^  c #F9004B",
"/  c #FF004B",
"(  c #FD004E",
")  c #F50051",
"_  c #FF0052",
"`  c #FB0056",
"'  c #FE0054",
"]  c #FE0058",
"[  c #E00065",
"{  c #E90166",
"}  c #F60062",
"|  c #FE0063",
" . c #F80064",
".. c #FE0066",
"X. c #FB0068",
"o. c #FF006C",
"O. c #FD0A6B",
"+. c #FC1566",
"@. c #E7017F",
"#. c #F50071",
"$. c #F60175",
"%. c #FF0073",
"&. c #FF0076",
"*. c #FE007A",
"=. c #FB017F",
"-. c #E62C6A",
";. c #F63365",
":. c #F92B76",
">. c #FD357A",
",. c #8C7560",
"<. c #F75C5D",
"1. c #DC705E",
"2. c #F65C67",
"3. c #FA5B65",
"4. c #F65A77",
"5. c #F5507B",
"6. c #3BA231",
"7. c #4A911F",
"8. c #5F9C2E",
"9. c #60952F",
"0. c #639133",
"q. c #58954E",
"w. c #718266",
"e. c #738468",
"r. c #75876A",
"t. c #788A6C",
"y. c #7A8C6E",
"u. c #739867",
"i. c #7E9272",
"p. c #7E9D71",
"a. c #9E9F53",
"s. c #8DB84E",
"d. c #81A558",
"f. c #94AB59",
"g. c #98AD5B",
"h. c #8DB151",
"j. c #8FB15C",
"k. c #988F69",
"l. c #879C7A",
"z. c #87B263",
"x. c #85A277",
"c. c #8CA778",
"v. c #8DA37F",
"b. c #C89663",
"n. c #D1B977",
"m. c #E6B07B",
"M. c #ECBE7B",
"N. c #EDBD7D",
"B. c #B9C66B",
"V. c #E4C277",
"C. c #C90082",
"Z. c #D80182",
"A. c #FB0080",
"S. c #FE0082",
"D. c #F90187",
"F. c #FF0184",
"G. c #FB018A",
"H. c #FF018A",
"J. c #FF018C",
"K. c #FE0193",
"L. c #F80197",
"P. c #FE0194",
"I. c #FC0199",
"U. c #F82A82",
"Y. c #FA2D84",
"T. c #FE01A0",
"R. c #F57B81",
"E. c #FB748C",
"W. c #EFB684",
"Q. c #AFD785",
"!. c #C1C683",
"~. c #EDDFA1",
/* pixels */
"v.v.v.v.v.v.v.v.v.v.v.v.v.v.v.b v.v.v.v.v.v.v.v.v.v.v.v.v.v.v.b ",
"~.v.v.v.v.v.v.v.v.v.v.v.v.v.v.b ~.v.v.v.v.v.v.v.v.v.v.v.v.v.v.b ",
"~.v.v.v.v.v.v.v.v.v.v.v.v.v.v.b ~.v.v.v.v.v.v.v.v.v.v.v.v.v.v.b ",
"~.v.v.v.v.v.v.v.v.v.v.v.v.v.v.b ~.v.v.v.v.v.v.v.v.v.v.v.v.v.v.b ",
"~.v.v.v.v.v.v.v.v.v.v.v.v.v.v.b ~.v.v.v.v.v.v.v.v.v.v.v.v.v.v.b ",
"~.v.v.v.v.v.v.v.v.v.v.v.v.v.v.b ~.v.v.v.v.v.v.v.v.v.v.v.v.v.v.b ",
"~.v.v.v.v.v.v.v.v.v.v.v.v.v.v.b ~.v.v.v.v.v.v.v.v.v.v.v.v.v.v.b ",
"~.v.v.v.v.v.v.v.v.v.v.v.v.v.v.b ~.v.v.v.v.v.v.v.v.v.v.v.v.v.v.b ",
"~.b v.v.v.v.v.v.v.v.v.v.v.v.v.b ~.b v.v.v.t.i.c.x.v.v.v.v.v.v.b ",
"~.b v.v.v.v.v.v.v.v.v.v.v.v.v.b ~.b v.w.v < 6 s.q.v.v.v.v.v.v.b ",
"~.b b v.v.v.v.v.v.v.v.v.v.v.v.b ~.b h d J o.Y.h.p p.v.v.v.v.v.b ",
"~.b v.b v.b v.v.v.v.v.v.v.v.v.b ~.k 5 @.&.| O.1.7.u.v.v.v.v.v.b ",
"~.b b v.b v.b v.b v.v.v.v.v.v.b O U G.J.! X _ 2.8.u.v.v.v.v.v.b ",
"~.b b b b b b b v.b b v.v r.g $ L.I.K.F.F Q ( <.9.l b v.b v.v.b ",
"~.~.~.~.~.~.~.~.~.~.~.k.,.3 T P.P.K.$.~ | Z ( 3.0.!.~.~.~.~.~.b ",
"b b b b b b b b b a > L Y T.T.P A.H.#.C 2 K +.b.r j b b b b b b ",
"v.v.v.v.v.v.v.i.: f C.I.K.X.=.Z.*.*.o.[ E %.:.j.x l.v.v.v.v.v.b ",
"~.v.v.v.v.v.o # P.S.S D.{ I V R %.% S N  .%.B.e z v.v.v.v.v.v.b ",
"~.v.v.v.i.u -.| %.` , W @ / B R A H ^ G } U.f.i v.v.v.v.v.v.v.b ",
"~.v.v.v.s c Q.5...) D ) 4 ( ( ' 1 ] | ;.4.z.q v v.v.v.v.v.v.v.b ",
"~.v.v.v.w.; t d.E.>.| | | | | | | +.R.a.n * M v.v.v.v.v.v.v.v.b ",
"~.v.v.v.v.y.e.& y g.V.M.N.W.W.W.m.n.6.0 + w.v.v.v.v.v.v.v.v.v.b ",
"~.v.v.v.v.v.v.v.m . 7 8 9 w w w = -   z v.v.v.v.v.v.v.v.v.v.v.b ",
"~.v.v.v.v.v.v.v.v.v.v.v.v.v.v.b ~.v.v.v.v.v.v.v.v.v.v.v.v.v.v.b ",
"~.b v.v.v.v.v.v.v.v.v.v.v.v.v.b ~.b v.v.v.v.v.v.v.v.v.v.v.v.v.b ",
"~.b v.v.v.v.v.v.v.v.v.v.v.v.v.b ~.b v.v.v.v.v.v.v.v.v.v.v.v.v.b ",
"~.b b v.v.v.v.v.v.v.v.v.v.v.v.b ~.b b v.v.v.v.v.v.v.v.v.v.v.v.b ",
"~.b v.b v.b v.v.v.v.v.v.v.v.v.b ~.b v.b v.b v.v.v.v.v.v.v.v.v.b ",
"~.b b v.b v.b v.b v.v.v.v.v.v.b ~.b b v.b v.b v.b v.v.v.v.v.v.b ",
"~.b b b b b b b v.b b v.b v.v.b ~.b b b b b b b v.b b v.b v.v.b ",
"~.~.~.~.~.~.~.~.~.~.~.~.~.~.~.b ~.~.~.~.~.~.~.~.~.~.~.~.~.~.~.b ",
"b b b b b b b b b b b b b b b b b b b b b b b b b b b b b b b b "
};
