/* XPM */
static char *ab18a3302ba746e6d09791bc39ad5b9aWvPHpYUxyMcdFCbg[] = {
/* columns rows colors chars-per-pixel */
"32 32 5 1 ",
"  c #262209",
". c #5C6B53",
"X c #493848",
"o c #8DA37F",
"O c white",
/* pixels */
"                                ",
"                                ",
"                                ",
"              .                 ",
"              X                 ",
"              X                 ",
"                                ",
"           X...                 ",
"          X....                 ",
"          XXXXX                 ",
"          XXXXX                 ",
"           XXXX                 ",
"        X......                 ",
"       Xooooooo                 ",
"       XXXXXXXX                 ",
"      X.X.X.X..                 ",
"      XX.X.X...                 ",
"     ..oooooooo  XX             ",
"    ..ooooooooo                 ",
"   X...........  XXXX           ",
"   X...........                 ",
"   XX..........  ......         ",
"   .ooooooooooo  XXXXXXXX       ",
"  .oooooooooooo  .........      ",
"  X............  .........      ",
"  X............  XXXXXXXXXX     ",
"  XX...........  ...........    ",
" Xooooooooooooo  ...........    ",
" Xooooooooooooo  XXXXXXXXXXXX   ",
" X.............  .............. ",
" X.............  .............. ",
" XXXXXXXXXXXXXX  XXXXXXXXXXXXXX "
};
