/* XPM */
static char *fc98d5187c1f4983ef9d17cd37ac521dxe2o3CzzkXNuesO9[] = {
/* columns rows colors chars-per-pixel */
"32 32 180 2 ",
"   c #04193F",
".  c #0A1F42",
"X  c #091848",
"o  c #0F1850",
"O  c #0E2241",
"+  c #0F2348",
"@  c #172B43",
"#  c #1B2E51",
"$  c #1E3153",
"%  c #253746",
"&  c #20364C",
"*  c #283D50",
"=  c #263959",
"-  c #30315E",
";  c #1B1663",
":  c #21156E",
">  c #251A6E",
",  c #332F63",
"<  c #313467",
"1  c #383664",
"2  c #36336E",
"3  c #38366E",
"4  c #40337D",
"5  c #433C79",
"6  c #513F78",
"7  c #374C57",
"8  c #3D4A51",
"9  c #3B5058",
"0  c #3D535A",
"q  c #314261",
"w  c #354765",
"e  c #3E4A6F",
"r  c #44544D",
"t  c #42575C",
"y  c #485E5F",
"u  c #5C6B53",
"i  c #454867",
"p  c #43536F",
"a  c #4C5B76",
"s  c #4D5C77",
"d  c #5B5776",
"f  c #5D5877",
"g  c #4F6562",
"h  c #516663",
"j  c #5A6263",
"k  c #546964",
"l  c #586A68",
"z  c #667C6D",
"x  c #6A7F6F",
"c  c #6B806F",
"v  c #6F8571",
"b  c #708571",
"n  c #738973",
"m  c #778D75",
"M  c #7A8F76",
"N  c #7B9076",
"B  c #7D9378",
"V  c #7E9478",
"C  c #809679",
"Z  c #849A7B",
"A  c #899F7D",
"S  c #8AA07E",
"D  c #8DA37F",
"F  c #351D81",
"G  c #34138C",
"H  c #392186",
"J  c #592F88",
"K  c #433083",
"L  c #4F319C",
"P  c #4414A2",
"I  c #4811AA",
"U  c #5A4380",
"Y  c #634587",
"T  c #637088",
"R  c #647289",
"E  c #7653BC",
"W  c #570FC3",
"Q  c #590FC6",
"!  c #5A0FC8",
"~  c #610ED3",
"^  c #660DDB",
"/  c #6A0DE0",
"(  c #700CEA",
")  c #750BF2",
"_  c #780BF7",
"`  c #9235BC",
"'  c #905AAA",
"]  c #985FAF",
"[  c #9561AB",
"{  c #9B60B2",
"}  c #9534C0",
"|  c #AC39D4",
" . c #811CF7",
".. c #9A1EF8",
"X. c #9920F1",
"o. c #A625F9",
"O. c #A926F9",
"+. c #AB2AF9",
"@. c #B02BF9",
"#. c #B42CF9",
"$. c #B730F6",
"%. c #CF3FF3",
"&. c #C938FA",
"*. c #8954D8",
"=. c #B342D6",
"-. c #B34BD3",
";. c #BB6FCA",
":. c #BD51F6",
">. c #A272E4",
",. c #A660F9",
"<. c #AE6FFA",
"1. c #B57CFA",
"2. c #C171CF",
"3. c #C272D0",
"4. c #C975D5",
"5. c #D841FB",
"6. c #DA44FB",
"7. c #DC49FA",
"8. c #C357F6",
"9. c #CA5DF6",
"0. c #DF53FA",
"q. c #D066F4",
"w. c #D56AF6",
"e. c #E67AEF",
"r. c #E461F9",
"t. c #E86AF8",
"y. c #E96CF8",
"u. c #EC75F7",
"i. c #EB73F8",
"p. c #F07EF7",
"a. c #7F8B9E",
"s. c #8C97A8",
"d. c #8E98A9",
"f. c #929CAC",
"g. c #949EAE",
"h. c #AAB2BF",
"j. c #C3BB8F",
"k. c #EDDFA1",
"l. c #C598FB",
"z. c #EA84EE",
"x. c #EB84F0",
"c. c #F284F6",
"v. c #F489F6",
"b. c #E496FC",
"n. c #E995FC",
"m. c #F592F7",
"M. c #F594F7",
"N. c #CEAAFC",
"B. c #D3B3FC",
"V. c #DABFFC",
"C. c #EEA2FB",
"Z. c #E8A7FC",
"A. c #EDAAFC",
"S. c #ECAFFD",
"D. c #F6AAF8",
"F. c #EFB7FD",
"G. c #F7B6F9",
"H. c #F7BCF9",
"J. c #BCC3CD",
"K. c #C3C9D2",
"L. c #C5CBD4",
"P. c #CAD0D8",
"I. c #DADEE3",
"U. c #EEC2FD",
"Y. c #F1C3FD",
"T. c #F8C2FA",
"R. c #F9D3FB",
"E. c #F9D8FB",
"W. c #DCE1E6",
"Q. c #FAE3FC",
"!. c #F8E7FD",
"~. c #F1EAFD",
"^. c #F2ECFD",
"/. c #F5F1FE",
"(. c #FBF6FD",
"). c #F8FBFB",
"_. c #FBF8FE",
"`. c #FCFBFE",
"'. c #FBFDFD",
"]. c #FCFEFE",
/* pixels */
"D D D D D D D D D D D D D D D u D D D D D D D D D D D D D D D u ",
"k.D D D D D D D D D D D D D D u k.D D D D D D D D D D D D D D u ",
"k.D D D D D D D D D D D D D D u k.D D D D D D D D D D D D D D u ",
"k.D D D D D D D D D D D D D D u k.D D D D D D D D D D D D D D u ",
"k.D D D D D D D D D D A S D D u k.A S D D D D D D D D D D D D u ",
"k.D D D D D D D D D n , i V D u j.; < B D D D D D D D D D D D u ",
"k.D D D D D D D D z U v.4.d M r F _ ! 0 D D D D D D D D D D D u ",
"k.D D D D D D D D & z.v.v.2.f O ( _ / K v D D D D D D D D D D u ",
"k.u D D D D D D D c 6 v.v.i.=.} $._ _ I k D D D D D D D D D D u ",
"k.u D D D D D D D D . 0.v.c.p.p.6.&.#.( H b D D D D D D D D D u ",
"k.u u D D D D D D & %.v.v.v.v.v.v.5.5.@.G x D D D D D D D D D u ",
"k.u D u D u D D V 1 x.v.v.m.E.].].].].N. .: C D D D D D D D D u ",
"k.u u D u D u D % -.c.v.M.R.P.h.h.].].I.E G 8 D u D D D D D D u ",
"k.u u u u u u u 7 3.v.v.D.L.w T a.s.W.s a L X u D u u D u D D u ",
"k.k.k.k.k.k.k.k.j 3.v.v.D.d.  K.].# J.  g.p   k.k.k.k.k.k.k.k.u ",
"u u u u u u u u % 3.v.v.D.d.  = q # J.  $ +   u u u u u u u u u ",
"D D D D D D D D 7 | c.v.v.H.R     ).'.f.  Q o D D D D D D D D u ",
"k.D D D D D D D D & e.v.v.G.!._.].].].].~.e C D D D D D D D D u ",
"k.D D D D D D D D t ` v.v.v.t.A.Y.U.B.B.*.3 Z D D D D D D D D u ",
"k.D D D D D D D D D . v.v.v.v.t.n.b.,.~ 5 N D D D D D D D D D u ",
"k.D D D D D D D D y ] v.v.q.w.T.`.].V.^ 4 m D D D D D D D D D u ",
"k.D D D D D D D D & z.v.v.:.8.Q.].]./.1.G c D D D D D D D D D u ",
"k.D D D D D D D 9 ;.v.v.q.o.S.].].].].l.) > C D D D D D D D D u ",
"k.D D D D D D D 7 3.v.c.9.+.F.].].].].l._ : C D D D D D D D D u ",
"k.u D D D D D D g [ q.9.o.r.H.(.].].^.>.W 2 Z D D D D D D D D u ",
"k.u D D D D D D D h P O.7.i.v.C.A.Z.<.I * N D D D D D D D D D u ",
"k.u u D D D D D D D . y.u.v.{ J X..._ I k D D D D D D D D D D u ",
"k.u D u D u D D D D . v.v.v.Y   ( _ ~ - C u D D D D D D D D D u ",
"k.u u D u D u D u D . v.v.' l @ ( _ ! 0 u D u D u D D D D D D u ",
"k.u u u u u u u D u u D u D D u k.u u u u u u u D u u D u D D u ",
"k.k.k.k.k.k.k.k.k.k.k.k.k.k.k.u k.k.k.k.k.k.k.k.k.k.k.k.k.k.k.u ",
"u u u u u u u u u u u u u u u u u u u u u u u u u u u u u u u u "
};
