/* XPM */
static char *adc6f2cb8dcc4d9e8449ba880f2e0c42BQjtgWc25YtzgBsf[] = {
/* columns rows colors chars-per-pixel */
"32 32 5 1 ",
"  c #46563C",
". c #493848",
"X c #618747",
"o c #A1BA91",
"O c white",
/* pixels */
"    .               .           ",
"XXX .XXXXXXXXXXXXXX .XXXXXXXXXXX",
"oXXX oXXXXXXXXXXXXXX oXXXXXXXXXX",
"XX X oXXXXXX X X X X oXXXXXX X X",
"X X  XX X X X X   X  XX X X X X ",
"X    X   X           X   X      ",
"X    X               X          ",
"       .......         .......  ",
"ooXoXXXXXX.oooooXoXoXXXXXX.ooooo",
"oXXXXXXXXX.oXXXXXXXXXXXXXX.oXXXX",
"oXXXXXXXXX oXXXXXXXXXXXXXX oXXXX",
"oXX XXX XX XXXXXXXX XXX XX XXXXX",
"XX X X X X X X X X X X X X X X X",
"o X   X    XX   X X   X    XX   ",
"X          X               X    ",
"X .......         .......       ",
"ooXX.ooooXoXoXXXXXXX.ooooXoXoXXX",
"oXXX.oXXXXXXXXXXXXXX.oXXXXXXXXXX",
"oXXX oXXXXXXXXXXXXXX oXXXXXXXXXX",
"XX X oXXXXXX X X X X oXXXXXX X X",
"X X  XX X X X X   X  XX X X X X ",
"X    X   X           X   X      ",
"X    X               X          ",
"       .......         .......  ",
"ooXoXXXXXX.oooooXoXoXXXXXX.ooooo",
"oXXXXXXXX .oXXXXXXXXXXXXX .oXXXX",
"oXXX XXX X oXXXX XXX XXX X oXXXX",
"X X   X X  X X  X X   X X  X X  ",
"          .XX             .XX   ",
"X . . .  ..X      . . .  ..X    ",
" . ... ....X . . . ... ....X . .",
" ..............................."
};
